<?xml version="1.0" encoding="utf-8"?>
<!-- Generator: Adobe Illustrator 25.2.1, SVG Export Plug-In . SVG Version: 6.00 Build 0)  -->
<svg version="1.1" id="Layer_1" xmlns="http://www.w3.org/2000/svg" xmlns:xlink="http://www.w3.org/1999/xlink" x="0px" y="0px"
	 viewBox="0 0 1920 263" style="enable-background:new 0 0 1920 263;" xml:space="preserve">
<style type="text/css">
	.st0{fill:#0089F6;}
</style>
<path class="st0" d="M1920,263H0V0c0,0,203.2,33.9,298.4,57.9c103.4,25.8,201.6,57.5,293.1,94.6c92.3,36.5,185.5,74.7,293.1,95.4
	c12.3,2.2,24.6,4.1,36.9,5.9c111.4,14.2,220.4-2.4,327.4-23.9c51-10.1,100.5-20.8,148.9-32.6c40.7-11.2,76.5-22.6,114-35
	c98.2-32.6,233.9-85.8,233.9-85.8c34.1-13.4,69-26.3,104.6-38.4c23.4-7.9,45.8-15.6,69.6-23.2L1920,263L1920,263z"/>
</svg>
